<svg width="60" height="60" viewBox="0 0 60 60" fill="none" xmlns="http://www.w3.org/2000/svg">
<path d="M36.8284 25.8442C35.6691 25.1735 34.3353 24.841 32.8326 24.841C31.33 24.841 29.9906 25.1763 28.82 25.8442C27.6494 26.5149 26.7292 27.4617 26.0623 28.6847C25.3926 29.9077 25.0605 31.3477 25.0605 33.0018C25.0605 34.656 25.3954 36.0932 26.0623 37.319C26.732 38.542 27.6494 39.4916 28.82 40.1595C29.9906 40.8302 31.3159 41.1627 32.8017 41.1627C34.2875 41.1627 35.6381 40.8274 36.7975 40.1595C37.9568 39.4888 38.8714 38.542 39.5411 37.319C40.2108 36.096 40.5428 34.656 40.5428 33.0018C40.5428 31.3477 40.2136 29.9105 39.5552 28.6847C38.8967 27.4617 37.9878 26.5149 36.8284 25.8442ZM36.6089 35.8114C36.2009 36.5553 35.6635 37.1048 34.9937 37.4599C34.324 37.8149 33.5924 37.9925 32.7989 37.9925C31.6086 37.9925 30.5787 37.5895 29.712 36.7836C28.8453 35.9776 28.4119 34.718 28.4119 33.0018C28.4119 31.8521 28.6145 30.9109 29.0226 30.1782C29.4306 29.4456 29.968 28.9017 30.6378 28.5466C31.3075 28.1916 32.0363 28.014 32.8326 28.014C33.629 28.014 34.3522 28.1916 35.0106 28.5466C35.6691 28.9017 36.2009 29.4456 36.6089 30.1782C37.017 30.9109 37.2196 31.8521 37.2196 33.0018C37.2196 34.1516 37.017 35.0674 36.6089 35.8114Z" fill="#D3A77A"/>
<path d="M52.1926 17.9482C51.5764 17.3311 50.6928 17.0211 49.5447 17.0211H44.5922V19.9405H48.9791C49.6488 19.9405 49.9809 20.2759 49.9809 20.9437V44.2962C49.9809 44.9669 49.646 45.2994 48.9791 45.2994H44.5922V48.2808H49.5447C50.6928 48.2808 51.5764 47.9709 52.1926 47.3537C52.8089 46.7366 53.1184 45.8518 53.1184 44.702V20.5999C53.1184 19.4502 52.8089 18.5653 52.1926 17.9482Z" fill="#D3A77A"/>
<path d="M25.4517 14.0285L24.6469 15.8996C24.3542 16.5815 23.6845 17.0211 22.9445 17.0211H10.4309C9.28281 17.0211 8.39923 17.3311 7.78297 17.9483C7.16672 18.5654 6.85718 19.4502 6.85718 20.6V44.7049C6.85718 45.8546 7.16391 46.7395 7.78297 47.3566C8.40204 47.9737 9.28281 48.2837 10.4309 48.2837H23.8309V45.3023H10.9965C10.3268 45.3023 9.99473 44.967 9.99473 44.2991V20.9438C9.99473 20.2731 10.3296 19.9406 10.9965 19.9406H22.9445C24.8495 19.9406 26.5688 18.8077 27.3258 17.055L28.1306 15.1838C28.4232 14.5019 29.0929 14.0623 29.833 14.0623H41.4884V11.1429H29.833C27.928 11.1429 26.2087 12.2757 25.4517 14.0285Z" fill="#D3A77A"/>
</svg>
