<svg width="60" height="60" viewBox="0 0 60 60" fill="none" xmlns="http://www.w3.org/2000/svg">
<path d="M13.8594 50.5714C12.7113 50.5714 11.8277 50.2614 11.2115 49.6443C10.5952 49.0272 10.2857 48.1423 10.2857 46.9926V13.8645C10.2857 12.7148 10.5924 11.83 11.2115 11.2128C11.8277 10.5957 12.7113 10.2857 13.8594 10.2857H18.8119V13.2051H14.425C13.7553 13.2051 13.4232 13.5405 13.4232 14.2083V46.584C13.4232 47.2547 13.7581 47.5872 14.425 47.5872H18.8119V50.5686H13.8594V50.5714Z" fill="#8EEFA3"/>
<path d="M33.2756 40.1619C31.7926 40.1619 30.4644 39.8265 29.2938 39.1587C28.1232 38.488 27.2031 37.5412 26.5362 36.3182C25.8665 35.0952 25.5344 33.6552 25.5344 32.001C25.5344 30.3469 25.8693 28.9097 26.5362 27.6839C27.2059 26.4609 28.1232 25.5141 29.2938 24.8434C30.4644 24.1727 31.8011 23.8402 33.3065 23.8402C34.812 23.8402 36.143 24.1755 37.3023 24.8434C38.4616 25.5141 39.3706 26.4609 40.029 27.6839C40.6875 28.9069 41.0167 30.3469 41.0167 32.001C41.0167 33.6552 40.6818 35.0923 40.0149 36.3182C39.3452 37.5412 38.4335 38.4908 37.2714 39.1587C36.112 39.8293 34.7782 40.1619 33.2756 40.1619ZM33.2756 36.9916C34.0691 36.9916 34.8007 36.8141 35.4704 36.4591C36.1402 36.104 36.6776 35.5545 37.0856 34.8105C37.4937 34.0666 37.6963 33.131 37.6963 32.001C37.6963 30.871 37.4937 29.9101 37.0856 29.1774C36.6776 28.4447 36.1458 27.9009 35.4873 27.5458C34.8289 27.1907 34.1029 27.0132 33.3093 27.0132C32.5158 27.0132 31.7842 27.1907 31.1145 27.5458C30.4447 27.9009 29.9073 28.4447 29.4993 29.1774C29.0912 29.9101 28.8886 30.8513 28.8886 32.001C28.8886 33.7172 29.322 34.9768 30.1887 35.7827C31.0554 36.5887 32.0853 36.9916 33.2756 36.9916Z" fill="#8EEFA3"/>
<path d="M41.2903 50.5714V47.59H45.6772C46.3469 47.59 46.679 47.2547 46.679 46.5868V14.2083C46.679 13.5377 46.3441 13.2051 45.6772 13.2051H41.2903V10.2857H46.2428C47.3909 10.2857 48.2745 10.5957 48.8907 11.2128C49.507 11.83 49.8165 12.7148 49.8165 13.8645V46.9926C49.8165 48.1423 49.507 49.0272 48.8907 49.6443C48.2745 50.2615 47.3909 50.5714 46.2428 50.5714H41.2903Z" fill="#8EEFA3"/>
<path d="M19.5858 31.2148C18.6459 31.2148 17.8412 30.9105 17.1714 30.3046C16.5017 29.6987 16.1697 28.8815 16.1697 27.8558C16.1697 26.8301 16.5045 25.9847 17.1714 25.376C17.8412 24.7701 18.6459 24.4658 19.5858 24.4658C20.5257 24.4658 21.3304 24.7701 22.0002 25.376C22.6699 25.9847 23.0019 26.8103 23.0019 27.8558C23.0019 28.9013 22.6671 29.6987 22.0002 30.3046C21.3304 30.9105 20.5285 31.2148 19.5858 31.2148ZM19.5858 29.6142C20.067 29.6142 20.475 29.4564 20.807 29.1436C21.1419 28.8308 21.3079 28.4025 21.3079 27.8558C21.3079 27.3091 21.1391 26.878 20.807 26.5539C20.4722 26.2298 20.0642 26.0664 19.5858 26.0664C19.1074 26.0664 18.6966 26.2298 18.3645 26.5539C18.0297 26.878 17.8637 27.3119 17.8637 27.8558C17.8637 28.3997 18.0297 28.828 18.3645 29.1436C18.6994 29.4564 19.1046 29.6142 19.5858 29.6142Z" fill="#8EEFA3"/>
<path d="M18.176 15.9893H20.9955V22.6256H18.176V15.9893Z" fill="#8EEFA3"/>
</svg>
