<svg width="67" height="45" viewBox="0 0 67 45" fill="none" xmlns="http://www.w3.org/2000/svg">
<path d="M5.14919 45C3.49496 45 2.22186 44.5538 1.33393 43.6655C0.445996 42.7772 0 41.5035 0 39.8486V5.15143C0 3.49648 0.441942 2.22282 1.33393 1.33451C2.22186 0.446187 3.49496 0 5.14919 0H24.4566V4.20227H5.96414C4.99918 4.20227 4.52075 4.68496 4.52075 5.64629V39.2604C4.52075 40.2258 5.00323 40.7044 5.96414 40.7044H24.4566V44.9959H5.14919V45Z" fill="#272727"/>
<path d="M37.3864 34.7498C35.2497 34.7498 33.336 34.2672 31.6493 33.3058C29.9626 32.3404 28.6368 30.9775 27.6759 29.2171C26.7109 27.4567 26.2325 25.384 26.2325 23.003C26.2325 20.6219 26.715 18.5533 27.6759 16.7888C28.6409 15.0284 29.9626 13.6655 31.6493 12.7001C33.336 11.7347 35.2618 11.2561 37.431 11.2561C39.6001 11.2561 41.5179 11.7388 43.1884 12.7001C44.8588 13.6655 46.1684 15.0284 47.1171 16.7888C48.0659 18.5492 48.5403 20.6219 48.5403 23.003C48.5403 25.384 48.0578 27.4527 47.0969 29.2171C46.1319 30.9775 44.8183 32.3445 43.1438 33.3058C41.4733 34.2712 39.5515 34.7498 37.3864 34.7498ZM37.3864 30.1866C38.5298 30.1866 39.5839 29.931 40.5489 29.4199C41.5138 28.9089 42.2883 28.1179 42.8762 27.047C43.4641 25.9762 43.756 24.6295 43.756 23.003C43.756 21.3764 43.4641 19.9932 42.8762 18.9386C42.2883 17.884 41.522 17.1011 40.5732 16.59C39.6245 16.0789 38.5784 15.8234 37.435 15.8234C36.2917 15.8234 35.2375 16.0789 34.2726 16.59C33.3076 17.1011 32.5332 17.884 31.9453 18.9386C31.3574 19.9932 31.0655 21.348 31.0655 23.003C31.0655 25.4732 31.6898 27.2864 32.9386 28.4464C34.1874 29.6065 35.6713 30.1866 37.3864 30.1866Z" fill="#272727"/>
<path d="M54.3747 45V40.7085H60.6956C61.6606 40.7085 62.139 40.2258 62.139 39.2645V5.64629C62.139 4.68091 61.6565 4.20227 60.6956 4.20227H54.3747V0H61.5106C63.1648 0 64.4379 0.446187 65.3258 1.33451C66.2137 2.22282 66.6597 3.49648 66.6597 5.15143V39.8486C66.6597 41.5035 66.2137 42.7772 65.3258 43.6655C64.4379 44.5538 63.1648 45 61.5106 45H54.3747Z" fill="#272727"/>
<path d="M8.91983 13.2882V9.22383H18.4681V13.2882H8.91983Z" fill="#272727"/>
</svg>
