<svg width="60" height="60" viewBox="0 0 60 60" fill="none" xmlns="http://www.w3.org/2000/svg">
<path d="M10.4308 45.834C9.28274 45.834 8.39916 45.524 7.78291 44.9069C7.16665 44.2897 6.85712 43.4049 6.85712 42.2552V18.1502C6.85712 17.0005 7.16384 16.1157 7.78291 15.4985C8.39916 14.8814 9.28274 14.5714 10.4308 14.5714H23.8308V17.4908H10.9964C10.3267 17.4908 9.99466 17.8262 9.99466 18.494V41.8466C9.99466 42.5172 10.3295 42.8498 10.9964 42.8498H23.8308V45.8312H10.4308V45.834Z" fill="#DCDC5D"/>
<path d="M32.8044 38.713C31.3215 38.713 29.9933 38.3777 28.8227 37.7098C27.6521 37.0392 26.732 36.0923 26.0651 34.8693C25.3953 33.6463 25.0633 32.2064 25.0633 30.5522C25.0633 28.8981 25.3982 27.4609 26.0651 26.2351C26.7348 25.0121 27.6521 24.0652 28.8227 23.3946C29.9933 22.7239 31.3299 22.3914 32.8354 22.3914C34.3409 22.3914 35.6718 22.7267 36.8312 23.3946C37.9905 24.0652 38.8994 25.0121 39.5579 26.2351C40.2164 27.4581 40.5456 28.8981 40.5456 30.5522C40.5456 32.2064 40.2107 33.6435 39.5438 34.8693C38.8741 36.0923 37.9624 37.042 36.8002 37.7098C35.6409 38.3805 34.3071 38.713 32.8044 38.713ZM32.8044 35.5428C33.598 35.5428 34.3296 35.3653 34.9993 35.0102C35.669 34.6552 36.2065 34.1057 36.6145 33.3617C37.0225 32.6178 37.2251 31.6822 37.2251 30.5522C37.2251 29.4222 37.0225 28.4613 36.6145 27.7286C36.2065 26.9959 35.6747 26.4521 35.0162 26.097C34.3577 25.7419 33.6317 25.5644 32.8382 25.5644C32.0447 25.5644 31.3131 25.7419 30.6433 26.097C29.9736 26.4521 29.4361 26.9959 29.0281 27.7286C28.6201 28.4613 28.4175 29.4025 28.4175 30.5522C28.4175 32.2683 28.8509 33.528 29.7175 34.3339C30.5842 35.1399 31.6141 35.5428 32.8044 35.5428Z" fill="#DCDC5D"/>
<path d="M44.5921 45.834V42.8526H48.979C49.6488 42.8526 49.9808 42.5173 49.9808 41.8494V18.4941C49.9808 17.8234 49.6459 17.4909 48.979 17.4909H44.5921V14.5714H49.5446C50.6927 14.5714 51.5763 14.8814 52.1926 15.4986C52.8088 16.1157 53.1184 17.0005 53.1184 18.1503V42.2552C53.1184 43.4049 52.8088 44.2898 52.1926 44.9069C51.5763 45.524 50.6927 45.834 49.5446 45.834H44.5921Z" fill="#DCDC5D"/>
<path d="M20.4119 27.1762C19.472 27.1762 18.6673 26.8719 17.9976 26.266C17.3278 25.6602 16.9958 24.843 16.9958 23.8172C16.9958 22.7915 17.3306 21.9461 17.9976 21.3374C18.6673 20.7315 19.472 20.4272 20.4119 20.4272C21.3518 20.4272 22.1565 20.7315 22.8263 21.3374C23.496 21.9461 23.828 22.7718 23.828 23.8172C23.828 24.8627 23.4932 25.6602 22.8263 26.266C22.1565 26.8719 21.3546 27.1762 20.4119 27.1762ZM20.4119 25.5756C20.8931 25.5756 21.3011 25.4178 21.6332 25.105C21.968 24.7922 22.134 24.3639 22.134 23.8172C22.134 23.2705 21.9652 22.8394 21.6332 22.5153C21.2983 22.1913 20.8903 22.0278 20.4119 22.0278C19.9335 22.0278 19.5227 22.1913 19.1907 22.5153C18.8558 22.8394 18.6898 23.2734 18.6898 23.8172C18.6898 24.3611 18.8558 24.7894 19.1907 25.105C19.5255 25.4178 19.9307 25.5756 20.4119 25.5756Z" fill="#DCDC5D"/>
</svg>
