<svg width="60" height="60" viewBox="0 0 60 60" fill="none" xmlns="http://www.w3.org/2000/svg">
<path d="M11.288 45.834C10.1399 45.834 9.25633 45.524 8.64008 44.9069C8.02383 44.2897 7.71429 43.4049 7.71429 42.2552V18.1502C7.71429 17.0005 8.02101 16.1157 8.64008 15.4985C9.25633 14.8814 10.1399 14.5714 11.288 14.5714H24.688V17.4908H11.8508C11.1811 17.4908 10.849 17.8262 10.849 18.494V41.8466C10.849 42.5172 11.1839 42.8498 11.8508 42.8498H24.6852V45.8312H11.288V45.834Z" fill="#FFB3BA"/>
<path d="M33.6616 38.713C32.1787 38.713 30.8505 38.3777 29.6799 37.7098C28.5093 37.0392 27.5891 36.0923 26.9222 34.8693C26.2525 33.6463 25.9205 32.2064 25.9205 30.5522C25.9205 28.8981 26.2553 27.4609 26.9222 26.2351C27.592 25.0121 28.5093 24.0652 29.6799 23.3946C30.8505 22.7239 32.1871 22.3914 33.6926 22.3914C35.198 22.3914 36.529 22.7267 37.6884 23.3946C38.8477 24.0652 39.7566 25.0121 40.4151 26.2351C41.0735 27.4581 41.4028 28.8981 41.4028 30.5522C41.4028 32.2064 41.0679 33.6435 40.401 34.8693C39.7313 36.0923 38.8196 37.042 37.6574 37.7098C36.4981 38.3805 35.1643 38.713 33.6616 38.713ZM33.6616 35.5428C34.4552 35.5428 35.1868 35.3653 35.8565 35.0102C36.5262 34.6552 37.0637 34.1057 37.4717 33.3617C37.8797 32.6178 38.0823 31.6822 38.0823 30.5522C38.0823 29.4222 37.8797 28.4613 37.4717 27.7286C37.0637 26.9959 36.5318 26.4521 35.8734 26.097C35.2149 25.7419 34.4889 25.5644 33.6954 25.5644C32.9019 25.5644 32.1702 25.7419 31.5005 26.097C30.8308 26.4521 30.2933 26.9959 29.8853 27.7286C29.4773 28.4613 29.2747 29.4025 29.2747 30.5522C29.2747 32.2683 29.708 33.528 30.5747 34.3339C31.4414 35.1399 32.4713 35.5428 33.6616 35.5428Z" fill="#FFB3BA"/>
<path d="M14.8842 23.8031V20.9795H21.511V23.8031H14.8842Z" fill="#FFB3BA"/>
<path d="M45.3676 45.741H34.1878V42.8216H45.3676C48.4066 42.8216 50.8801 40.3446 50.8801 37.3012V23.0113C50.8801 19.9679 48.4066 17.4909 45.3676 17.4909H34.1878V14.5714H45.3676C50.0134 14.5714 53.7953 18.356 53.7953 23.0113V37.3012C53.7953 41.9537 50.0162 45.741 45.3676 45.741Z" fill="#FFB3BA"/>
</svg>
