<svg width="60" height="60" viewBox="0 0 60 60" fill="none" xmlns="http://www.w3.org/2000/svg">
<path d="M36.8313 25.8442C35.6719 25.1735 34.3381 24.841 32.8355 24.841C31.3328 24.841 29.9934 25.1763 28.8228 25.8442C27.6522 26.5149 26.732 27.4617 26.0651 28.6847C25.3954 29.9077 25.0634 31.3477 25.0634 33.0018C25.0634 34.656 25.3982 36.0932 26.0651 37.319C26.7348 38.542 27.6522 39.4916 28.8228 40.1595C29.9934 40.8302 31.3188 41.1627 32.8045 41.1627C34.2903 41.1627 35.641 40.8274 36.8003 40.1595C37.9596 39.4888 38.8742 38.542 39.5439 37.319C40.2136 36.096 40.5457 34.656 40.5457 33.0018C40.5457 31.3477 40.2164 29.9105 39.558 28.6847C38.8995 27.4617 37.9906 26.5149 36.8313 25.8442ZM36.6118 35.8114C36.2037 36.5553 35.6663 37.1048 34.9966 37.4599C34.3268 37.8149 33.5952 37.9925 32.8017 37.9925C31.6114 37.9925 30.5815 37.5895 29.7148 36.7836C28.8481 35.9776 28.4148 34.718 28.4148 33.0018C28.4148 31.8521 28.6174 30.9109 29.0254 30.1782C29.4334 29.4456 29.9709 28.9017 30.6406 28.5466C31.3103 28.1916 32.0391 28.014 32.8355 28.014C33.6318 28.014 34.355 28.1916 35.0135 28.5466C35.6719 28.9017 36.2037 29.4456 36.6118 30.1782C37.0198 30.9109 37.2224 31.8521 37.2224 33.0018C37.2224 34.1516 37.0198 35.0674 36.6118 35.8114Z" fill="#A3D7FF"/>
<path d="M52.1954 17.9482C51.5792 17.3311 50.6956 17.0211 49.5475 17.0211H44.595V19.9405H48.9819C49.6516 19.9405 49.9837 20.2759 49.9837 20.9437V44.2962C49.9837 44.9669 49.6488 45.2994 48.9819 45.2994H44.595V48.2808H49.5475C50.6956 48.2808 51.5792 47.9709 52.1954 47.3537C52.8117 46.7366 53.1212 45.8518 53.1212 44.702V20.5999C53.1212 19.4502 52.8117 18.5653 52.1954 17.9482Z" fill="#A3D7FF"/>
<path d="M24.1629 17.0211H10.4309C9.28278 17.0211 8.39921 17.3311 7.78296 17.9483C7.1667 18.5654 6.85718 19.4502 6.85718 20.6V44.7049C6.85718 45.8546 7.16389 46.7395 7.78296 47.3566C8.40202 47.9737 9.28278 48.2837 10.4309 48.2837H23.8308V45.3023H10.9965C10.3268 45.3023 9.99471 44.967 9.99471 44.2991V20.9438C9.99471 20.2731 10.3296 19.9406 10.9965 19.9406H26.082L28.6145 14.0623H41.4912V11.1429H26.6983L24.1657 17.0211H24.1629Z" fill="#A3D7FF"/>
</svg>
